<?xml version="1.0" standalone="no"?>
<!DOCTYPE svg PUBLIC "-//W3C//DTD SVG 20010904//EN"
 "http://www.w3.org/TR/2001/REC-SVG-20010904/DTD/svg10.dtd">
<svg version="1.0" xmlns="http://www.w3.org/2000/svg"
 width="305.000000pt" height="305.000000pt" viewBox="0 0 305.000000 305.000000"
 preserveAspectRatio="xMidYMid meet">
<metadata>
Created by potrace 1.14, written by Peter Selinger 2001-2017
</metadata>
<g transform="translate(0.000000,305.000000) scale(0.100000,-0.100000)"
fill="#ffffff" stroke="none">
<path d="M1434 2962 c-10 -9 -35 -29 -54 -43 -19 -15 -75 -66 -124 -115 -245
-246 -370 -490 -382 -747 -13 -307 190 -564 486 -616 l35 -6 0 -334 c0 -229 4
-336 11 -338 11 -4 103 44 105 55 1 4 2 142 4 307 1 165 3 303 4 308 0 4 10 7
20 7 42 0 160 44 219 82 294 190 359 556 164 933 -76 147 -268 370 -418 485
-11 8 -27 21 -35 27 -13 10 -19 9 -35 -5z"/>
<path d="M2845 2898 c-11 -5 -35 -31 -54 -56 -46 -62 -213 -267 -328 -404 -51
-60 -94 -116 -94 -126 -4 -57 15 -82 61 -82 31 0 76 31 175 118 38 34 71 60
73 57 2 -2 -4 -41 -13 -87 -9 -46 -19 -92 -21 -102 -2 -11 -15 -59 -30 -109
-14 -49 -27 -94 -28 -100 -3 -18 -37 -118 -51 -152 -51 -122 -73 -169 -108
-235 -23 -41 -48 -88 -56 -105 -21 -42 -128 -193 -185 -261 -80 -96 -265 -272
-361 -343 -108 -81 -286 -189 -393 -238 -178 -83 -457 -160 -677 -187 -111
-14 -502 -15 -629 -1 -91 10 -139 -28 -116 -90 15 -39 50 -48 250 -61 308 -21
606 3 840 67 41 12 87 23 101 25 14 3 61 18 104 34 44 16 82 25 85 20 4 -7 5
-168 1 -205 -1 -7 -83 -11 -228 -12 -305 -3 -636 -15 -763 -28 -229 -23 -257
-26 -301 -40 -28 -9 -23 -34 8 -41 16 -3 44 -10 63 -14 61 -14 134 -23 310
-35 52 -4 109 -8 125 -11 59 -7 485 -18 725 -18 220 0 520 9 655 19 337 25
460 41 506 66 57 30 -46 55 -301 74 -265 19 -332 22 -527 25 -79 1 -144 5
-144 8 -1 4 -3 68 -4 142 l-3 136 97 49 c100 52 204 115 209 128 2 4 8 7 13 7
6 0 15 4 22 10 35 28 127 99 162 125 72 53 269 258 341 355 122 165 193 290
291 510 59 132 136 374 148 465 3 24 34 148 38 151 1 2 20 -49 42 -112 48
-143 74 -169 136 -138 46 23 46 46 -6 324 -3 14 -10 57 -16 95 -6 39 -14 93
-19 120 -43 256 -39 241 -68 256 -37 18 -35 18 -57 7z"/>
</g>
</svg>
